<?xml version="1.0" encoding="utf-8"?>
<!-- Generator: Adobe Illustrator 25.4.0, SVG Export Plug-In . SVG Version: 6.00 Build 0)  -->
<svg version="1.1" id="Layer_1" xmlns="http://www.w3.org/2000/svg" xmlns:xlink="http://www.w3.org/1999/xlink" x="0px" y="0px"
	 viewBox="0 0 600 564" style="enable-background:new 0 0 600 564;" xml:space="preserve">
<style type="text/css">
	.st0{fill:#FFFFFF;stroke:#000000;stroke-miterlimit:10;}
</style>
<path class="st0" d="M373,226.6c-17.5-21.9-39.7-34.3-67.1-37.3c-3.3-0.4-4.1-2-4.6-4.6c-5.6-32.9-9.7-65.9-11.2-99.2
	c-0.6-13.2,1.3-26.3,6.3-38.7C307.1,20.3,328,7.8,355.2,4.3c23.2-3,45.5,1.3,67.2,9.1c24.4,8.8,46.4,21.8,64.5,40.6
	c12.1,12.6,21.4,27,23.6,44.7c2.9,23.2-7,41.9-24.2,55.7c-17.7,14.3-36.9,26.7-56.1,39c-17.2,11-35.3,20.7-53,31
	C376.1,225.2,374.7,225.8,373,226.6z"/>
<path class="st0" d="M385.4,318.1c6.6-17.3,8.7-34.7,4.8-52.4c-1.8-8-5-15.8-7.9-23.5c-1-2.7-1.2-4.3,1.3-6.3
	c25.8-21.6,52.6-41.8,81-60c12-7.7,25.1-12.9,39.5-14.7c24.7-3.1,44.3,6.5,60.1,24.7c17.4,20.1,26,44.4,30.3,70.2
	c4.2,25.1,3.8,50.1-3.6,74.7c-5.7,19-15.1,35.7-32.8,46c-17,9.9-35.2,9.2-53.2,3.4c-10.4-3.3-20.7-7.6-30.3-12.7
	c-28.9-15.5-57.4-31.6-86.1-47.4C387.4,319.5,386.6,318.9,385.4,318.1z"/>
<path class="st0" d="M311.1,431.1c0-16.8,0-33.7,0-50.5c0-3,1-4.2,4.1-4.8c26.5-5.6,47.3-19.7,62.3-42.4c0.8-1.2,3.4-2.4,4.5-2
	c34.3,12.8,68.5,26.1,100.2,44.7c11.5,6.7,21,15.8,28.1,27.2c11.8,19,12.1,39.1,4.9,59.5c-8.4,23.9-24.2,42.8-43.3,58.9
	c-20.2,17.1-42.8,29.9-68.8,36.1c-12.8,3.1-25.6,4-38.6,1.3c-24.7-5.2-38.4-21.7-45.7-44.7c-5-15.9-5.6-32.5-6.4-48.9
	c-0.6-11.5-0.1-23-0.1-34.5C312,431.1,311.5,431.1,311.1,431.1z"/>
<path class="st0" d="M288.9,133.3c0,16.8-0.1,33.6,0.1,50.5c0,3.9-1.2,5.4-5.3,5.9c-26.9,3.6-48.6,16.3-64.8,38.1
	c-2.3,3-4.1,3.9-7.7,2.3c-28.6-12.7-57.4-24.8-85.8-37.9c-12.5-5.7-23-14.7-31.5-25.7c-15.6-20.1-17.3-42.3-9-65.7
	c8.9-25.1,25.7-44.5,46-61.1c19.6-16,41.3-27.9,66.1-33.9c12.8-3.1,25.6-4,38.6-1.3c24.7,5.2,38.4,21.7,45.6,44.7
	c5,15.9,5.6,32.4,6.4,48.9c0.6,11.6,0.1,23.3,0.1,34.9C288,133.3,288.5,133.3,288.9,133.3z"/>
<path class="st0" d="M220.1,340.5c12.6,15.4,27.2,26.5,45.4,31.9c8.7,2.6,17.8,3.7,26.9,4.8c4.2,0.5,6.5,1.4,7,6.1
	c3.4,31.6,7.8,63.1,10.2,94.7c1.5,20.4-2.9,40.2-16.3,56.8c-12.4,15.4-29.4,22.4-48.5,24.8c-23.9,3-46.8-1.6-69-9.8
	c-23.9-8.8-45.4-21.7-63-40.3c-14.2-15-24.5-32.1-23.7-53.8c0.7-19.5,10.1-35.2,24.8-46.6c19-14.8,39.3-27.9,59.5-41
	C188.4,358.4,204.2,349.8,220.1,340.5z"/>
<path class="st0" d="M209.7,242.5c-13.3,30.5-12,59.5,3.6,88.4c-8.3,6.6-16.4,13.6-25,19.7c-20.1,14.2-40,28.8-60.9,41.8
	c-15.7,9.7-33.7,13.7-52.4,9.9c-20.5-4.1-35.3-16.7-46.5-33.7c-17.8-26.9-24.8-57.2-25.3-89.1c-0.3-19.5,2.2-38.6,9.8-56.7
	c8.4-19.9,21-35.7,43.1-41.1c16.4-4.1,32.8-1.8,47.8,5.2c23.7,11,46.9,23.1,70,35.2C186.1,228.4,197.7,235.6,209.7,242.5z"/>
<path class="st0" d="M206.7,283.4c-0.4-48,39.3-87.4,87.9-88.4c49.5-1,90.1,38.7,91.2,86c1.1,47.1-36.1,89.7-88.9,90.5
	C247.6,372.4,207.1,332.6,206.7,283.4z"/>
</svg>
